<svg width="141" height="25" viewBox="0 0 141 25" fill="none" xmlns="http://www.w3.org/2000/svg">
<rect x="7" y="4" width="1" height="16" fill="white"/>
<rect x="14" y="4" width="1" height="16" fill="white"/>
<rect x="21" y="4" width="1" height="16" fill="white"/>
<rect x="28" y="4" width="1" height="16" fill="white"/>
<rect x="35" width="1" height="25" fill="white"/>
<rect width="0.5" height="25" fill="#FE0000"/>
<rect x="77" y="4" width="1" height="16" fill="white"/>
<rect x="84" y="4" width="1" height="16" fill="white"/>
<rect x="91" y="4" width="1" height="16" fill="white"/>
<rect x="98" y="4" width="1" height="16" fill="white"/>
<rect x="112" y="4" width="1" height="16" fill="white"/>
<rect x="119" y="4" width="1" height="16" fill="white"/>
<rect x="126" y="4" width="1" height="16" fill="white"/>
<rect x="133" y="4" width="1" height="16" fill="white"/>
<rect x="105" width="1" height="25" fill="white"/>
<rect x="140" width="0.5" height="25" fill="#FF0000"/>
<rect x="42" y="4" width="1" height="16" fill="white"/>
<rect x="49" y="4" width="1" height="16" fill="white"/>
<rect x="56" y="4" width="1" height="16" fill="white"/>
<rect x="63" y="4" width="1" height="16" fill="white"/>
<rect x="70" width="1" height="25" fill="white"/>
</svg>
